<svg width="60" height="60" viewBox="0 0 60 60" fill="none" xmlns="http://www.w3.org/2000/svg">
<rect width="60" height="60" rx="30" fill="#FFEDED"/>
<path d="M26 20V23" stroke="#B33537" stroke-width="1.5" stroke-miterlimit="10" stroke-linecap="round" stroke-linejoin="round"/>
<path d="M34 20V23" stroke="#B33537" stroke-width="1.5" stroke-miterlimit="10" stroke-linecap="round" stroke-linejoin="round"/>
<path d="M21.5 27.0901H38.5" stroke="#B33537" stroke-width="1.5" stroke-miterlimit="10" stroke-linecap="round" stroke-linejoin="round"/>
<path d="M36 41C38.2091 41 40 39.2091 40 37C40 34.7909 38.2091 33 36 33C33.7909 33 32 34.7909 32 37C32 39.2091 33.7909 41 36 41Z" stroke="#B33537" stroke-width="1.5" stroke-miterlimit="10" stroke-linecap="round" stroke-linejoin="round"/>
<path d="M37.07 38.11L34.95 36" stroke="#B33537" stroke-width="1.5" stroke-miterlimit="10" stroke-linecap="round" stroke-linejoin="round"/>
<path d="M37.05 36.02L34.93 38.14" stroke="#B33537" stroke-width="1.5" stroke-miterlimit="10" stroke-linecap="round" stroke-linejoin="round"/>
<path d="M39 26.5V34.36C38.27 33.53 37.2 33 36 33C33.79 33 32 34.79 32 37C32 37.75 32.21 38.46 32.58 39.06C32.79 39.42 33.06 39.74 33.37 40H26C22.5 40 21 38 21 35V26.5C21 23.5 22.5 21.5 26 21.5H34C37.5 21.5 39 23.5 39 26.5Z" stroke="#B33537" stroke-width="1.5" stroke-miterlimit="10" stroke-linecap="round" stroke-linejoin="round"/>
<path d="M29.9955 31.7H30.0045" stroke="#B33537" stroke-width="2" stroke-linecap="round" stroke-linejoin="round"/>
<path d="M26.2943 31.7H26.3033" stroke="#B33537" stroke-width="2" stroke-linecap="round" stroke-linejoin="round"/>
<path d="M26.2943 34.7H26.3033" stroke="#B33537" stroke-width="2" stroke-linecap="round" stroke-linejoin="round"/>
</svg>
