<svg width="18" height="18" viewBox="0 0 18 18" fill="none" xmlns="http://www.w3.org/2000/svg">
<path d="M16.25 0C16.9141 0 17.5 0.585938 17.5 1.28906V16.25C17.5 16.9531 16.9141 17.5 16.25 17.5H1.21095C0.546887 17.5 1.23978e-05 16.9531 1.23978e-05 16.25V1.28906C1.23978e-05 0.585938 0.546887 0 1.21095 0H16.25ZM5.27345 15V6.67969H2.69532V15H5.27345ZM3.98439 5.50781C4.8047 5.50781 5.46876 4.84375 5.46876 4.02344C5.46876 3.20312 4.8047 2.5 3.98439 2.5C3.12501 2.5 2.46095 3.20312 2.46095 4.02344C2.46095 4.84375 3.12501 5.50781 3.98439 5.50781ZM15 15V10.4297C15 8.20312 14.4922 6.44531 11.875 6.44531C10.625 6.44531 9.76564 7.14844 9.41407 7.8125H9.37501V6.67969H6.91407V15H9.4922V10.8984C9.4922 9.80469 9.68751 8.75 11.0547 8.75C12.3828 8.75 12.3828 10 12.3828 10.9375V15H15Z" fill="#145DB8"/>
</svg>
