<svg width="20" height="20" viewBox="0 0 20 20" fill="none" xmlns="http://www.w3.org/2000/svg">
<g clip-path="url(#clip0_9436_5658)">
<path d="M1.66675 4.38118C1.66675 2.88204 2.97258 1.66675 4.58342 1.66675C6.19425 1.66675 7.50008 2.88204 7.50008 4.38118C7.50008 5.86857 6.56918 7.60422 5.11678 8.2249C4.7782 8.36959 4.38863 8.36959 4.05005 8.2249C2.59765 7.60422 1.66675 5.86857 1.66675 4.38118Z" stroke="#6D7379" stroke-width="1.5"/>
<path d="M12.5 14.3812C12.5 12.882 13.8058 11.6667 15.4167 11.6667C17.0275 11.6667 18.3333 12.882 18.3333 14.3812C18.3333 15.8686 17.4024 17.6042 15.95 18.2249C15.6114 18.3696 15.2219 18.3696 14.8833 18.2249C13.4309 17.6042 12.5 15.8686 12.5 14.3812Z" stroke="#6D7379" stroke-width="1.5"/>
<path d="M15.4165 14.5833H15.424" stroke="#6D7379" stroke-width="2" stroke-linecap="round" stroke-linejoin="round"/>
<path d="M4.57568 4.58325H4.58318" stroke="#6D7379" stroke-width="2" stroke-linecap="round" stroke-linejoin="round"/>
<path d="M10.0001 3.41675C9.58589 3.41675 9.2501 3.75253 9.2501 4.16675C9.2501 4.58096 9.58589 4.91675 10.0001 4.91675V4.16675V3.41675ZM10.0001 15.8334L10.5304 16.3637C10.8233 16.0709 10.8233 15.596 10.5304 15.3031L10.0001 15.8334ZM14.3381 7.23952L14.7408 7.87226L14.3381 7.23952ZM5.66208 12.7606L6.06473 13.3934H6.06473L5.66208 12.7606ZM9.28043 14.0531C8.98754 13.7602 8.51266 13.7602 8.21977 14.0531C7.92688 14.346 7.92688 14.8209 8.21977 15.1137L8.7501 14.5834L9.28043 14.0531ZM8.21977 16.5531C7.92688 16.846 7.92688 17.3209 8.21977 17.6137C8.51266 17.9066 8.98754 17.9066 9.28043 17.6137L8.7501 17.0834L8.21977 16.5531ZM13.4433 4.16675V3.41675H10.0001V4.16675V4.91675H13.4433V4.16675ZM10.0001 15.8334V15.0834H6.55686V15.8334V16.5834H10.0001V15.8334ZM14.3381 7.23952L13.9355 6.60677L5.25942 12.1279L5.66208 12.7606L6.06473 13.3934L14.7408 7.87226L14.3381 7.23952ZM10.0001 15.8334L10.5304 15.3031L9.28043 14.0531L8.7501 14.5834L8.21977 15.1137L9.46977 16.3637L10.0001 15.8334ZM10.0001 15.8334L9.46977 15.3031L8.21977 16.5531L8.7501 17.0834L9.28043 17.6137L10.5304 16.3637L10.0001 15.8334ZM6.55686 15.8334V15.0834C5.63979 15.0834 5.29102 13.8857 6.06473 13.3934L5.66208 12.7606L5.25942 12.1279C3.21967 13.4259 4.13911 16.5834 6.55686 16.5834V15.8334ZM13.4433 4.16675V4.91675C14.3604 4.91675 14.7092 6.11441 13.9355 6.60677L14.3381 7.23952L14.7408 7.87226C16.7805 6.57423 15.8611 3.41675 13.4433 3.41675V4.16675Z" fill="#6D7379"/>
</g>
<defs>
<clipPath id="clip0_9436_5658">
<rect width="20" height="20" fill="white"/>
</clipPath>
</defs>
</svg>
