<svg width="22" height="22" viewBox="0 0 22 22" fill="none" xmlns="http://www.w3.org/2000/svg">
<path fill-rule="evenodd" clip-rule="evenodd" d="M17.9232 3.57683C18.0112 2.64084 17.6968 1.67416 16.9802 0.957464C15.7035 -0.319155 13.6337 -0.319155 12.3571 0.957464C11.4384 1.87621 10.9586 3.44568 11.3167 4.73972C11.3751 4.95068 11.3996 5.15371 11.3852 5.31696C11.3712 5.47662 11.3256 5.55135 11.2884 5.58857L10.0089 6.86804C9.56404 7.31291 9.70916 8.06642 10.2874 8.31426C11.5898 8.87242 12.6276 9.91019 13.1857 11.2126C13.4336 11.7908 14.1871 11.936 14.632 11.4911L15.9114 10.2116C15.9486 10.1744 16.0234 10.1288 16.183 10.1148C16.3463 10.1004 16.5493 10.1249 16.7603 10.1833C18.0543 10.5414 19.6238 10.0616 20.5425 9.1429C21.8192 7.86628 21.8192 5.79647 20.5425 4.51985C19.8258 3.80316 18.8592 3.48882 17.9232 3.57683ZM15.9195 2.01812C15.2287 1.32729 14.1086 1.32729 13.4178 2.01812C12.8501 2.58582 12.5597 3.60724 12.7624 4.33968C12.8524 4.66505 12.9142 5.05487 12.8794 5.44876C12.8444 5.84625 12.7053 6.29295 12.349 6.64923L11.6653 7.33302C12.699 7.93949 13.5605 8.80104 14.167 9.83475L14.8508 9.15095C15.207 8.79468 15.6537 8.65562 16.0512 8.62056C16.4451 8.58581 16.8349 8.64758 17.1603 8.73762C17.8928 8.9403 18.9142 8.64993 19.4819 8.08224C20.1727 7.39141 20.1727 6.27134 19.4819 5.58051C18.791 4.88968 17.671 4.88968 16.9802 5.58051C16.6873 5.8734 16.2124 5.8734 15.9195 5.58051C15.6266 5.28762 15.6266 4.81274 15.9195 4.51985C16.6103 3.82902 16.6103 2.70896 15.9195 2.01812Z" fill="#05162C"/>
<path d="M15.8769 15.8764C16.1698 15.5835 16.6447 15.5835 16.9376 15.8764L18.3518 17.2906C18.6447 17.5835 18.6447 18.0584 18.3518 18.3513C18.0589 18.6442 17.584 18.6442 17.2911 18.3513L15.8769 16.9371C15.584 16.6442 15.584 16.1693 15.8769 15.8764Z" fill="#05162C"/>
<path d="M5.62359 4.56293C5.91648 4.85582 5.91648 5.3307 5.62359 5.62359C5.3307 5.91648 4.85582 5.91648 4.56293 5.62359L3.14872 4.20938C2.85582 3.91649 2.85582 3.44161 3.14872 3.14872C3.44161 2.85582 3.91649 2.85582 4.20938 3.14872L5.62359 4.56293Z" fill="#05162C"/>
<path d="M13.75 17C14.1642 17 14.5 17.3358 14.5 17.75V18.75C14.5 19.1642 14.1642 19.5 13.75 19.5C13.3358 19.5 13 19.1642 13 18.75V17.75C13 17.3358 13.3358 17 13.75 17Z" fill="#05162C"/>
<path d="M3.75 8.5C4.16421 8.5 4.5 8.16421 4.5 7.75C4.5 7.33579 4.16421 7 3.75 7H2.75C2.33579 7 2 7.33579 2 7.75C2 8.16421 2.33579 8.5 2.75 8.5H3.75Z" fill="#05162C"/>
<path d="M17 13.75C17 13.3358 17.3358 13 17.75 13H18.75C19.1642 13 19.5 13.3358 19.5 13.75C19.5 14.1642 19.1642 14.5 18.75 14.5H17.75C17.3358 14.5 17 14.1642 17 13.75Z" fill="#05162C"/>
<path d="M7 3.75C7 4.16421 7.33579 4.5 7.75 4.5C8.16421 4.5 8.5 4.16421 8.5 3.75V2.75C8.5 2.33579 8.16421 2 7.75 2C7.33579 2 7 2.33579 7 2.75L7 3.75Z" fill="#05162C"/>
<path fill-rule="evenodd" clip-rule="evenodd" d="M11.2126 13.1857C9.91019 12.6276 8.87242 11.5898 8.31426 10.2874C8.06643 9.70917 7.31292 9.56403 6.86804 10.0089L5.58857 11.2884C5.55135 11.3256 5.47662 11.3712 5.31696 11.3852C5.15371 11.3996 4.95068 11.3751 4.73972 11.3167C3.44568 10.9586 1.87621 11.4384 0.957464 12.3571C-0.319154 13.6337 -0.319155 15.7035 0.957464 16.9802C1.67416 17.6968 2.64084 18.0112 3.57683 17.9232C3.48882 18.8592 3.80316 19.8258 4.51985 20.5425C5.79647 21.8192 7.86628 21.8192 9.1429 20.5425C10.0616 19.6238 10.5414 18.0543 10.1833 16.7603C10.1249 16.5493 10.1004 16.3463 10.1148 16.183C10.1288 16.0234 10.1744 15.9486 10.2116 15.9114L11.4911 14.632C11.936 14.1871 11.7908 13.4336 11.2126 13.1857ZM7.33302 11.6653L6.65291 12.3454L6.64923 12.349L6.62648 12.3714C6.27406 12.7112 5.83784 12.8451 5.44876 12.8794C5.05487 12.9142 4.66505 12.8524 4.33968 12.7624C3.60724 12.5597 2.58582 12.8501 2.01812 13.4178C1.32729 14.1086 1.32729 15.2287 2.01812 15.9195C2.70896 16.6103 3.82902 16.6103 4.51985 15.9195C4.59308 15.8463 4.67768 15.7913 4.76798 15.7547L4.77403 15.7523C5.04361 15.6457 5.36248 15.7015 5.58051 15.9195C5.8734 16.2124 5.8734 16.6873 5.58051 16.9802C4.88968 17.671 4.88968 18.791 5.58051 19.4819C6.27134 20.1727 7.39141 20.1727 8.08224 19.4819C8.64993 18.9142 8.9403 17.8928 8.73762 17.1603C8.64758 16.835 8.58581 16.4451 8.62056 16.0512C8.65562 15.6537 8.79468 15.207 9.15095 14.8508L9.83475 14.167C8.80104 13.5605 7.93949 12.699 7.33302 11.6653Z" fill="#05162C"/>
</svg>
