<svg width="21" height="21" viewBox="0 0 21 21" fill="none" xmlns="http://www.w3.org/2000/svg">
<path d="M8.375 16.25C8.375 16.25 9.125 15.5 10.25 15.5C11.375 15.5 12.125 16.25 12.125 16.25M20 10.25C20 15.635 15.635 20 10.25 20C4.865 20 0.5 15.635 0.5 10.25C0.5 4.865 4.865 0.5 10.25 0.5C15.635 0.5 20 4.865 20 10.25ZM15.5 11.75C15.5 11.9489 15.421 12.1397 15.2803 12.2803C15.1397 12.421 14.9489 12.5 14.75 12.5C14.5511 12.5 14.3603 12.421 14.2197 12.2803C14.079 12.1397 14 11.9489 14 11.75C14 11.5511 14.079 11.3603 14.2197 11.2197C14.3603 11.079 14.5511 11 14.75 11C14.9489 11 15.1397 11.079 15.2803 11.2197C15.421 11.3603 15.5 11.5511 15.5 11.75ZM6.5 11.75C6.5 11.9489 6.42098 12.1397 6.28033 12.2803C6.13968 12.421 5.94891 12.5 5.75 12.5C5.55109 12.5 5.36032 12.421 5.21967 12.2803C5.07902 12.1397 5 11.9489 5 11.75C5 11.5511 5.07902 11.3603 5.21967 11.2197C5.36032 11.079 5.55109 11 5.75 11C5.94891 11 6.13968 11.079 6.28033 11.2197C6.42098 11.3603 6.5 11.5511 6.5 11.75Z" stroke="#05162C" stroke-linecap="round" stroke-linejoin="round"/>
</svg>
