<svg width="16" height="22" viewBox="0 0 16 22" fill="none" xmlns="http://www.w3.org/2000/svg">
<path d="M0.750122 6.12225C8.75012 1.99278 7.25012 8.7546 14.7501 6.12228" stroke="#05162C" stroke-width="1.5" stroke-linecap="round"/>
<path d="M0.750122 7.75C0.750122 4.94108 0.750122 3.53661 1.42424 2.52772C1.71608 2.09096 2.09108 1.71596 2.52784 1.42412C3.53674 0.75 4.9412 0.75 7.75012 0.75C10.559 0.75 11.9635 0.75 12.9724 1.42412C13.4092 1.71596 13.7842 2.09096 14.076 2.52772C14.7501 3.53661 14.7501 4.94108 14.7501 7.75V9.75C14.7501 12.5589 14.7501 13.9634 14.076 14.9723C13.7842 15.409 13.4092 15.784 12.9724 16.0759C11.9635 16.75 10.559 16.75 7.75012 16.75C4.9412 16.75 3.53674 16.75 2.52784 16.0759C2.09108 15.784 1.71608 15.409 1.42424 14.9723C0.750122 13.9634 0.750122 12.5589 0.750122 9.75L0.750122 7.75Z" stroke="#05162C" stroke-width="1.5" stroke-linejoin="round"/>
<path d="M7.76431 8.75L6.32372 10.2376C5.55008 11.0503 5.56343 12.3588 6.33708 13.1577C7.12406 13.9566 8.39123 13.9428 9.16488 13.1439C9.95186 12.3312 9.93852 11.0227 9.16488 10.2238L7.76431 8.75Z" stroke="#05162C" stroke-width="1.5" stroke-linejoin="round"/>
<path d="M3.75012 20.75C5.95926 20.75 7.75012 18.9591 7.75012 16.75" stroke="#05162C" stroke-width="1.5" stroke-linecap="round" stroke-linejoin="round"/>
</svg>
