<svg width="24" height="22" viewBox="0 0 24 22" fill="none" xmlns="http://www.w3.org/2000/svg">
<path d="M15.3788 4.71443C15.2382 4.85503 15.0474 4.93402 14.8485 4.93402C14.6497 4.93402 14.4589 4.85503 14.3183 4.71443C14.1127 4.50806 13.8683 4.34448 13.5991 4.23313C13.3299 4.12177 13.0413 4.06486 12.75 4.06568C12.135 4.06568 11.5853 4.31243 11.1818 4.71443C11.1122 4.78406 11.0295 4.83929 10.9385 4.87698C10.8475 4.91467 10.75 4.93406 10.6515 4.93406C10.4527 4.93406 10.2619 4.85506 10.1213 4.71443C10.0517 4.64479 9.99643 4.56212 9.95875 4.47114C9.92106 4.38016 9.90166 4.28265 9.90166 4.18418C9.90166 3.98529 9.98067 3.79456 10.1213 3.65393C10.4664 3.3086 10.8762 3.03473 11.3273 2.84799C11.7784 2.66125 12.2618 2.56532 12.75 2.56567C13.2383 2.56532 13.7217 2.66125 14.1728 2.84799C14.6239 3.03473 15.0337 3.3086 15.3788 3.65393C15.5194 3.79457 15.5984 3.9853 15.5984 4.18418C15.5984 4.38305 15.5194 4.57378 15.3788 4.71443ZM6.67055 3.99817C6.00801 4.38521 5.40879 4.87162 4.8938 5.44043L4.89305 5.44118C4.37631 6.01208 3.95057 6.65917 3.6308 7.35968C3.30253 8.07853 3.09112 8.84517 3.00455 9.63068C2.99372 9.72858 3.00227 9.82765 3.02973 9.92225C3.05718 10.0168 3.103 10.1051 3.16457 10.182C3.22613 10.2589 3.30224 10.3229 3.38854 10.3704C3.47484 10.4178 3.56965 10.4478 3.66755 10.4587C3.76545 10.4695 3.86453 10.461 3.95912 10.4335C4.05372 10.406 4.14198 10.3602 4.21886 10.2987C4.29575 10.2371 4.35976 10.161 4.40723 10.0747C4.45471 9.98838 4.48472 9.89358 4.49555 9.79568C4.56591 9.16863 4.73473 8.55661 4.9958 7.98218C5.50969 6.85666 6.35896 5.91753 7.4273 5.29343C7.51235 5.24374 7.58678 5.17778 7.64633 5.09933C7.70589 5.02088 7.74941 4.93146 7.77442 4.83619C7.79942 4.74092 7.80541 4.64165 7.79205 4.54406C7.77869 4.44647 7.74624 4.35247 7.69655 4.26743C7.64686 4.18238 7.58091 4.10795 7.50246 4.04839C7.424 3.98883 7.33459 3.94531 7.23931 3.92031C7.0469 3.86981 6.84231 3.89782 6.67055 3.99817ZM18.0001 12.3749C18.0001 12.176 18.0791 11.9852 18.2197 11.8446C18.3604 11.7039 18.5511 11.6249 18.7501 11.6249C18.949 11.6249 19.1397 11.7039 19.2804 11.8446C19.421 11.9852 19.5 12.176 19.5 12.3749C19.499 13.0516 19.2363 13.7016 18.7669 14.1889C18.2974 14.6762 17.6577 14.9631 16.9816 14.9894C17.1488 15.3337 17.2501 15.7162 17.2501 16.1249C17.2501 16.3238 17.171 16.5146 17.0304 16.6553C16.8897 16.7959 16.699 16.8749 16.5001 16.8749C16.3011 16.8749 16.1104 16.7959 15.9697 16.6553C15.8291 16.5146 15.7501 16.3238 15.7501 16.1249C15.7501 15.8266 15.6315 15.5404 15.4205 15.3294C15.2096 15.1185 14.9234 14.9999 14.625 14.9999H9.98855C9.78964 14.9999 9.59887 14.9209 9.45822 14.7803C9.31757 14.6396 9.23855 14.4488 9.23855 14.2499C9.23855 14.051 9.31757 13.8602 9.45822 13.7196C9.59887 13.5789 9.78964 13.4999 9.98855 13.4999H11.6251C11.9232 13.4993 12.209 13.3806 12.4199 13.1698C12.6307 12.9589 12.7495 12.6731 12.75 12.3749C12.75 12.176 12.8291 11.9852 12.9697 11.8446C13.1104 11.7039 13.3011 11.6249 13.5 11.6249C13.699 11.6249 13.8897 11.7039 14.0304 11.8446C14.171 11.9852 14.25 12.176 14.25 12.3749C14.25 12.7792 14.151 13.1579 13.9875 13.4999H16.8751C17.1732 13.4993 17.459 13.3806 17.6699 13.1698C17.8807 12.9589 17.9995 12.6731 18.0001 12.3749Z" fill="#05162C"/>
<path d="M24 11.7832C24 11.3122 23.9662 10.8562 23.9145 10.4137C23.2342 4.55025 18.261 0.0015 12.2167 0H11.2928C5.055 0.00075 0.00075 5.055 0 11.2927C0 11.8781 0.11529 12.4577 0.339288 12.9985C0.563286 13.5392 0.891604 14.0306 1.3055 14.4445C2.14139 15.2804 3.27511 15.75 4.45725 15.75H5.388C5.64024 16.817 6.24513 17.7677 7.10479 18.4482C7.96444 19.1288 9.02858 19.4994 10.125 19.5H15.453L17.79 21.837C17.8687 21.9156 17.9688 21.9691 18.0779 21.9907C18.1869 22.0124 18.3 22.0012 18.4027 21.9587C18.5054 21.9162 18.5932 21.8442 18.655 21.7517C18.7169 21.6593 18.7499 21.5507 18.75 21.4395V19.4377C19.9028 19.294 20.989 18.8183 21.8763 18.0685C22.7637 17.3187 23.4139 16.3271 23.748 15.2145C23.8552 14.856 23.9167 14.478 23.9557 14.0932L23.958 14.0872C23.979 14.0182 24 13.95 24 13.875C23.9995 13.829 23.9975 13.7835 23.994 13.7385L23.9888 13.6522C23.9893 13.6282 23.991 13.605 23.994 13.5825C23.998 13.555 24 13.5275 24 13.5V11.7832ZM22.311 14.7862C22.0341 15.7146 21.465 16.5288 20.6883 17.1078C19.9116 17.6868 18.9688 17.9997 18 18H10.125C9.28342 17.9996 8.47237 17.6847 7.85091 17.1173C7.22945 16.5498 6.84243 15.7706 6.76575 14.9325L6.76125 14.8845C6.78632 13.9104 7.19153 12.9848 7.89021 12.3056C8.58889 11.6264 9.52559 11.2475 10.5 11.25C10.6989 11.25 10.8897 11.171 11.0303 11.0303C11.171 10.8897 11.25 10.6989 11.25 10.5C11.25 10.3011 11.171 10.1103 11.0303 9.96967C10.8897 9.82902 10.6989 9.75 10.5 9.75C9.61926 9.74997 8.75266 9.97152 7.98 10.3942C7.83253 10.0629 7.62619 9.76099 7.371 9.50325C7.23037 9.36262 7.03963 9.28361 6.84075 9.28361C6.64187 9.28361 6.45113 9.36262 6.3105 9.50325C6.16987 9.64388 6.09086 9.83462 6.09086 10.0335C6.09086 10.2324 6.16987 10.4231 6.3105 10.5637C6.5235 10.7775 6.66825 11.0512 6.723 11.358C5.96082 12.1503 5.46658 13.1618 5.31 14.25H4.45725C4.0687 14.2506 3.68387 14.1744 3.32489 14.0257C2.9659 13.8771 2.63986 13.6589 2.3655 13.3837C2.09059 13.1094 1.87261 12.7835 1.72408 12.4246C1.57554 12.0658 1.49939 11.6811 1.5 11.2927C1.5 8.586 2.595 6.1425 4.368 4.368C5.27598 3.45678 6.3553 2.73423 7.54378 2.24201C8.73225 1.74978 10.0064 1.4976 11.2928 1.5H12.2167C17.2342 1.4985 21.4012 5.1 22.305 9.85425C21.478 9.04769 20.4227 8.51532 19.2825 8.3295C19.6597 7.638 19.875 6.84375 19.875 6C19.875 5.80109 19.796 5.61032 19.6553 5.46967C19.5147 5.32902 19.3239 5.25 19.125 5.25C18.9261 5.25 18.7353 5.32902 18.5947 5.46967C18.454 5.61032 18.375 5.80109 18.375 6C18.3758 6.44333 18.2889 6.88245 18.1193 7.29204C17.9496 7.70163 17.7006 8.07359 17.3865 8.3865C17.0736 8.70056 16.7016 8.9496 16.292 9.11925C15.8824 9.2889 15.4433 9.37582 15 9.375C14.8011 9.375 14.6103 9.45402 14.4697 9.59467C14.329 9.73532 14.25 9.92609 14.25 10.125C14.25 10.3239 14.329 10.5147 14.4697 10.6553C14.6103 10.796 14.8011 10.875 15 10.875C16.1595 10.8757 17.281 10.4612 18.1613 9.7065L18.1733 9.71025C18.2384 9.7327 18.3062 9.74607 18.375 9.75C19.5165 9.75 20.5432 10.2105 21.2917 10.9582C22.0102 11.6773 22.4366 12.6371 22.4888 13.6522C22.4782 14.0363 22.4184 14.4174 22.311 14.7862Z" fill="#05162C"/>
</svg>
