<svg width="15" height="20" viewBox="0 0 15 20" fill="none" xmlns="http://www.w3.org/2000/svg">
<path fill-rule="evenodd" clip-rule="evenodd" d="M10.5395 0.119907C10.7728 0.24571 10.9467 0.458988 11.0228 0.712877C11.0989 0.966765 11.0711 1.24049 10.9455 1.47391L7.97155 6.99791C7.03855 8.72991 5.61455 10.5409 4.05355 11.7909C3.40955 12.3059 2.72655 12.9529 2.32755 13.6259C1.94255 14.2739 1.90155 14.7829 2.18755 15.2599C2.49955 15.7799 3.00755 16.1489 3.59555 16.2849C4.05253 15.8105 4.59876 15.431 5.20285 15.1683C5.80694 14.9056 6.45699 14.7649 7.11564 14.7542C7.77429 14.7435 8.42857 14.8631 9.04086 15.106C9.65316 15.349 10.2114 15.7105 10.6835 16.1699L9.29055 17.6049C8.87047 17.1958 8.33971 16.9187 7.76388 16.808C7.18805 16.6973 6.59239 16.7577 6.05055 16.9819C6.36455 17.1289 6.67055 17.3009 6.95455 17.4979C7.68455 18.0059 8.47054 18.8399 8.47054 19.9999H6.47055C6.47055 19.8149 6.33655 19.5049 5.81055 19.1399C5.31355 18.7919 4.65055 18.5369 4.09455 18.4249L3.27055 18.2609C2.6925 18.1453 2.145 17.9102 1.66316 17.5706C1.18132 17.231 0.775774 16.7944 0.472546 16.2889C-0.328454 14.9529 0.00654525 13.6169 0.607545 12.6049C1.19355 11.6169 2.10355 10.7889 2.80355 10.2289C4.12555 9.17191 5.38555 7.58191 6.21055 6.04991L9.18554 0.525907C9.31118 0.292435 9.52438 0.118408 9.77828 0.0420871C10.0322 -0.0342341 10.306 -0.00560267 10.5395 0.119907ZM12.5655 15.6449C12.5673 14.914 12.3004 14.2079 11.8155 13.6609L13.3155 12.3369C13.8055 12.8922 14.166 13.5494 14.371 14.2611C14.5759 14.9727 14.6203 15.721 14.5007 16.4518C14.3812 17.1827 14.1009 17.8779 13.6799 18.4872C13.2589 19.0964 12.7079 19.6046 12.0665 19.9749L11.0645 18.2439C11.9645 17.7239 12.5655 16.7539 12.5655 15.6439" fill="#05162C"/>
</svg>
