<svg width="20" height="20" viewBox="0 0 20 20" fill="none" xmlns="http://www.w3.org/2000/svg">
<path d="M7.91663 11.6667C9.29734 11.6667 10.4166 12.786 10.4166 14.1667C10.4166 15.5474 9.29734 16.6667 7.91663 16.6667C6.53591 16.6667 5.41663 15.5474 5.41663 14.1667C5.41663 12.786 6.53591 11.6667 7.91663 11.6667Z" stroke="#6D7379" stroke-width="1.5"/>
<path d="M12.0834 3.33323C10.7027 3.33323 9.58337 4.45252 9.58337 5.83323C9.58337 7.21394 10.7027 8.33323 12.0834 8.33323C13.4641 8.33323 14.5834 7.21394 14.5834 5.83323C14.5834 4.45252 13.4641 3.33323 12.0834 3.33323Z" stroke="#6D7379" stroke-width="1.5"/>
<path d="M12.5 14.1321L18.3333 14.1321" stroke="#6D7379" stroke-width="1.5" stroke-linecap="round"/>
<path d="M7.5 5.79883L1.66667 5.79883" stroke="#6D7379" stroke-width="1.5" stroke-linecap="round"/>
<path d="M1.66663 14.1321L3.33329 14.1321" stroke="#6D7379" stroke-width="1.5" stroke-linecap="round"/>
<path d="M18.3334 5.79883L16.6667 5.79883" stroke="#6D7379" stroke-width="1.5" stroke-linecap="round"/>
</svg>
