<svg width="22" height="15" viewBox="0 0 22 15" fill="none" xmlns="http://www.w3.org/2000/svg">
<path d="M20.8984 2.38281C21.3672 4.02344 21.3672 7.53906 21.3672 7.53906C21.3672 7.53906 21.3672 11.0156 20.8984 12.6953C20.6641 13.6328 19.9219 14.3359 19.0234 14.5703C17.3438 15 10.7031 15 10.7031 15C10.7031 15 4.02345 15 2.34376 14.5703C1.44532 14.3359 0.703137 13.6328 0.468762 12.6953C1.23978e-05 11.0156 1.23978e-05 7.53906 1.23978e-05 7.53906C1.23978e-05 7.53906 1.23978e-05 4.02344 0.468762 2.38281C0.703137 1.44531 1.44532 0.703125 2.34376 0.46875C4.02345 0 10.7031 0 10.7031 0C10.7031 0 17.3438 0 19.0234 0.46875C19.9219 0.703125 20.6641 1.44531 20.8984 2.38281ZM8.51564 10.7031L14.0625 7.53906L8.51564 4.375V10.7031Z" fill="#FC4B4E"/>
</svg>
