<svg width="24" height="24" viewBox="0 0 24 24" fill="none" xmlns="http://www.w3.org/2000/svg">
<path d="M0 9.375H24V14.625H0V9.375Z" fill="#E6E7E8"/>
<path d="M20.25 3.75H3.75C1.26488 3.75 0 5.59688 0 7.875V9.375H24V7.875C24 5.59688 22.7351 3.75 20.25 3.75Z" fill="#EC1C24"/>
<path d="M0 16.125C0 18.4031 1.26488 20.25 3.75 20.25H20.25C22.7351 20.25 24 18.4031 24 16.125V14.625H0V16.125Z" fill="#25333A"/>
<path fill-rule="evenodd" clip-rule="evenodd" d="M13.7415 10.653C13.7782 10.989 13.7775 11.3257 13.7936 11.6632C13.8244 12.3082 13.8484 12.9562 13.8746 13.6031V13.7201C13.677 13.5341 13.4959 13.3653 13.3166 13.1947C13.3117 13.1778 13.32 13.1662 13.332 13.1546C13.3646 13.1178 13.353 13.0743 13.3504 13.0346C13.332 12.7552 13.3267 12.4747 13.3121 12.1942C13.2926 11.7892 13.2806 11.385 13.2566 10.98C13.2502 10.8558 13.2904 10.7666 13.3972 10.7043C13.4644 10.6646 13.5094 10.6807 13.5116 10.7587C13.5176 10.9106 13.5229 11.0621 13.5311 11.214C13.5547 11.6508 13.5682 12.0885 13.5892 12.525C13.599 12.7278 13.6185 12.93 13.6121 13.1321C13.6099 13.1928 13.6136 13.2521 13.623 13.2881C13.5919 13.1613 13.617 13.0095 13.605 12.858C13.5829 12.6003 13.578 12.3416 13.5671 12.0828C13.551 11.6415 13.5255 11.202 13.5127 10.7606C13.5097 10.6196 13.5394 10.6008 13.6774 10.6503C13.6984 10.6541 13.7205 10.6406 13.7415 10.653ZM10.8052 13.2697C10.6496 13.4145 10.4932 13.5588 10.3267 13.7118C10.3267 13.5731 10.3222 13.4535 10.3275 13.3316C10.3605 12.5227 10.3961 11.7131 10.4302 10.9027C10.434 10.8191 10.4434 10.7362 10.4509 10.6526C10.473 10.6436 10.4884 10.6766 10.5116 10.6597C10.5334 10.6437 10.5583 10.6326 10.5847 10.6271C10.6462 10.6166 10.6811 10.6458 10.6811 10.7085C10.6811 10.9008 10.6684 11.091 10.659 11.2807C10.6526 11.4292 10.6417 11.5777 10.638 11.7262C10.6286 12.0607 10.6095 12.3945 10.5971 12.7271C10.5892 12.9131 10.5855 13.0998 10.5746 13.2843C10.5889 13.1107 10.5889 12.9337 10.596 12.759C10.62 12.1965 10.6446 11.634 10.6699 11.0715C10.6736 10.971 10.6845 10.8693 10.6807 10.7677C10.6792 10.7336 10.6845 10.6995 10.7205 10.6856C10.752 10.6717 10.7764 10.6938 10.8026 10.7085C10.9024 10.7677 10.9402 10.8528 10.9354 10.9698C10.9133 11.4463 10.8926 11.9228 10.8731 12.3993C10.8641 12.6135 10.8656 12.8291 10.8405 13.0436C10.8334 13.1182 10.8135 13.1932 10.8052 13.2697Z" fill="#BF9200"/>
<path fill-rule="evenodd" clip-rule="evenodd" d="M10.8052 13.2697C10.7797 13.2001 10.7787 13.1239 10.8022 13.0537C10.815 13.0514 10.8352 13.0856 10.8405 13.0481C10.8435 13.0143 10.8532 12.9828 10.8532 12.9506C10.8532 12.7323 10.8686 12.5144 10.8791 12.2981C10.8941 11.9887 10.9012 11.6786 10.923 11.3703C10.9309 11.2664 10.9297 11.1614 10.932 11.0579C10.9335 11.0021 10.9309 10.9331 10.9984 10.9166C11.0655 10.9004 11.1052 10.9556 11.142 11.0051C11.1641 11.0351 11.1656 11.0714 11.1634 11.1082C11.1435 11.4026 11.1394 11.6966 11.1247 11.9913C11.112 12.2771 11.1019 12.5624 11.0884 12.8493C11.1084 12.4271 11.1266 12.0044 11.1431 11.5814C11.1472 11.4483 11.1574 11.3152 11.1611 11.1802C11.1641 11.0733 11.1926 11.0527 11.301 11.0628C11.3516 11.0684 11.4004 11.0782 11.4521 11.0816C11.4757 11.0906 11.5016 11.0992 11.5087 11.1277C11.4982 11.1659 11.4641 11.1618 11.4367 11.1626C11.3771 11.1667 11.3569 11.2016 11.3734 11.2526C11.3925 11.3069 11.3854 11.3628 11.388 11.4172C11.3854 11.4667 11.3842 11.5162 11.3801 11.5657C11.3678 11.6743 11.3614 11.7834 11.361 11.8927C11.3587 12.0907 11.34 12.2898 11.3347 12.4874C11.3164 12.5604 11.3119 12.6363 11.3216 12.7109C11.3265 12.7349 11.3336 12.7589 11.3396 12.7829C11.3452 12.8186 11.3306 12.8508 11.3111 12.8786C11.3016 12.889 11.29 12.8973 11.2769 12.9028C11.2639 12.9083 11.2499 12.9109 11.2357 12.9104C11.1994 12.9048 11.1836 12.9344 11.163 12.9524L10.8052 13.2697ZM13.3342 13.1812C13.3277 13.1862 13.3217 13.1913 13.3162 13.1966C13.239 13.1246 13.1602 13.0533 13.0841 12.9798C13.0785 12.9637 13.0856 12.9509 13.0946 12.9382C13.1021 12.9243 13.1002 12.9097 13.1002 12.8943C13.0946 12.4526 13.0706 12.0134 13.0485 11.5732C13.0406 11.4131 13.0466 11.2514 13.029 11.0917C13.0249 11.0642 13.0312 11.0361 13.0466 11.0129C13.0826 10.9619 13.1227 10.9016 13.1944 10.9188C13.2611 10.9353 13.2592 11.0047 13.26 11.0602C13.2724 11.5484 13.3024 12.0367 13.3237 12.5249C13.3312 12.6997 13.3237 12.8767 13.3496 13.0511C13.3552 13.0927 13.3616 13.1399 13.3342 13.1812ZM13.0972 13.4497C13.1047 13.5202 13.1336 13.5371 13.2075 13.5161C13.3219 13.4831 13.4824 13.5614 13.4591 13.7069C13.4539 13.7467 13.464 13.7729 13.5041 13.7917C13.563 13.8191 13.584 13.8956 13.656 13.9087C13.6665 13.9113 13.6721 13.9327 13.6627 13.9398C13.5952 13.9792 13.6151 14.0741 13.5514 14.1164C13.5427 14.1232 13.5304 14.1344 13.5292 14.1442C13.5247 14.2739 13.4287 14.2972 13.329 14.3186C12.8557 14.4217 12.3761 14.4314 11.895 14.4217C11.5402 14.4157 11.1862 14.3962 10.839 14.3111C10.7475 14.2901 10.6894 14.2556 10.6579 14.1536C10.633 14.0826 10.5958 14.0166 10.548 13.9586C10.5202 13.9244 10.5277 13.9211 10.5589 13.8956C10.6372 13.8318 10.7449 13.7932 10.7385 13.6533C10.7336 13.5532 10.875 13.4786 10.9856 13.5153C11.0576 13.5389 11.088 13.5213 11.0959 13.4497C11.1199 13.4448 11.1292 13.4617 11.1379 13.4786C11.1506 13.5056 11.1476 13.5329 11.1442 13.5614C11.1398 13.5741 11.1311 13.5847 11.1195 13.5914C11.0846 13.6079 11.0501 13.5982 11.0167 13.5884C10.9927 13.5806 10.9631 13.5693 10.9417 13.5948C10.9151 13.6282 10.9556 13.6379 10.9669 13.6589C10.9728 13.669 10.9754 13.6807 10.9744 13.6923C10.9687 13.7118 10.9526 13.7219 10.9369 13.7313C10.8825 13.7437 10.8375 13.7681 10.8135 13.8236C10.8026 13.8506 10.7741 13.8652 10.7479 13.8828C10.6744 13.9342 10.6672 13.9747 10.722 14.0437C10.7321 14.0576 10.7486 14.0711 10.752 14.0876C10.7741 14.1978 10.8596 14.2166 10.9507 14.2346C11.2579 14.2938 11.5699 14.3201 11.8834 14.3219C12.1642 14.3246 12.444 14.3298 12.7241 14.3039C12.9225 14.2856 13.1212 14.2657 13.3147 14.2166C13.3717 14.2023 13.4141 14.1802 13.428 14.1176C13.4344 14.0887 13.4554 14.0647 13.4737 14.0411C13.5229 13.9803 13.5199 13.9342 13.4587 13.8903C13.4166 13.8667 13.3819 13.8319 13.3582 13.7898C13.3339 13.7414 13.2874 13.7482 13.2409 13.7546C13.1145 13.7759 12.9926 13.8123 12.867 13.8367C12.8505 13.8344 12.8396 13.8254 12.8302 13.8108C12.8216 13.7974 12.8166 13.7821 12.8155 13.7662C12.8145 13.7503 12.8175 13.7345 12.8242 13.7201C12.8309 13.7069 12.8419 13.6964 12.8554 13.6904C12.9911 13.7459 13.107 13.6574 13.2341 13.6421C13.2517 13.6394 13.2615 13.6259 13.2596 13.6098C13.2532 13.5854 13.2337 13.5787 13.2097 13.5821C13.1666 13.5869 13.1242 13.6128 13.0785 13.5944C13.0665 13.5876 13.057 13.5771 13.0515 13.5644C13.0449 13.5363 13.0466 13.5069 13.0564 13.4797C13.0642 13.4624 13.0732 13.4452 13.0987 13.4497" fill="#BF9200"/>
<path fill-rule="evenodd" clip-rule="evenodd" d="M13.1018 12.9637L13.0838 12.9776C13.029 12.9543 13.0024 12.8898 12.9409 12.8752C12.9348 12.8801 12.9276 12.8833 12.9199 12.8846C12.9122 12.8858 12.9043 12.8851 12.897 12.8823C12.8621 12.8595 12.8498 12.828 12.8516 12.7882C12.855 12.7635 12.8655 12.7406 12.8693 12.7147C12.8808 12.6425 12.8771 12.5687 12.8584 12.498C12.8509 12.282 12.8306 12.0678 12.8299 11.8511C12.8299 11.7795 12.8404 11.7033 12.7976 11.6377C12.7827 11.6273 12.771 11.6128 12.7639 11.5961C12.7796 11.4885 12.8014 11.382 12.8145 11.2732C12.825 11.1836 12.828 11.1791 12.7399 11.163C12.717 11.1588 12.6923 11.1588 12.6833 11.1296C12.69 11.0996 12.7174 11.0921 12.7418 11.082C12.7976 11.0771 12.8535 11.0658 12.9094 11.0606C12.9941 11.0523 13.0256 11.0767 13.0305 11.1622C13.0388 11.3328 13.0444 11.5023 13.0515 11.6722C13.0736 12.0933 13.0834 12.5171 13.1089 12.939C13.1089 12.948 13.1044 12.9562 13.1018 12.9637Z" fill="#BF9200"/>
<path fill-rule="evenodd" clip-rule="evenodd" d="M12.9064 12.8737L12.9412 12.8748L13.0117 13.1591C13.0219 13.176 13.0207 13.1906 13.002 13.2015C12.9881 13.2086 12.9694 13.1823 12.9566 13.2086C12.8959 13.3267 12.9191 13.4366 13.0279 13.5202C13.0425 13.5303 13.0579 13.5386 13.0646 13.5577L13.0856 13.5746C13.0849 13.6162 13.05 13.6192 13.0249 13.626C12.9592 13.6395 12.8959 13.6605 12.8284 13.656C12.8047 13.656 12.7813 13.661 12.7597 13.6706C12.6255 13.6968 12.4897 13.6953 12.3547 13.6905C12.3311 13.689 12.3034 13.6867 12.2959 13.7182C12.2895 13.7482 12.3139 13.758 12.3375 13.7647C12.3975 13.785 12.4601 13.7775 12.5209 13.7808C12.5546 13.7827 12.5921 13.7711 12.6184 13.8052C12.6225 13.8521 12.5854 13.8543 12.5542 13.8596C12.516 13.8653 12.4772 13.866 12.4387 13.8618C12.3615 13.8573 12.291 13.8716 12.2336 13.9293C12.226 13.938 12.2165 13.9448 12.2059 13.9492C12.1451 13.9698 12.0941 13.9016 12.0165 13.9473C11.9704 13.9755 11.898 13.8907 11.8627 13.8273C11.8587 13.8146 11.8582 13.801 11.8612 13.788C11.8669 13.7587 11.9152 13.7475 11.8969 13.7122C11.877 13.6758 11.8372 13.6938 11.8072 13.6905C11.7409 13.6837 11.67 13.7205 11.6104 13.6687C11.607 13.6091 11.6677 13.617 11.6951 13.5877C11.7117 13.5737 11.7323 13.5654 11.754 13.5641C11.7672 13.5643 11.7792 13.5687 11.79 13.5772C11.8001 13.587 11.811 13.6001 11.8264 13.5986C11.9194 13.5892 11.9955 13.6215 12.0652 13.6777C12.0825 13.6916 12.1031 13.6976 12.1219 13.6815C12.1965 13.6241 12.2794 13.59 12.378 13.5971C12.3881 13.5971 12.3964 13.584 12.4054 13.5765C12.4155 13.5687 12.4276 13.5636 12.4402 13.5618C12.5059 13.5877 12.5524 13.5855 12.5861 13.5063C12.6157 13.4355 12.6551 13.4418 12.7406 13.5183C12.8006 13.4351 12.8002 13.4175 12.7279 13.3113C12.6866 13.3455 12.687 13.4257 12.618 13.425C12.5539 13.425 12.54 13.3586 12.5025 13.323C12.4676 13.3627 12.495 13.4433 12.4166 13.4538C12.3799 13.4298 12.3769 13.3942 12.3832 13.3563C12.4114 13.2757 12.4069 13.1936 12.3986 13.1118C12.4018 13.0986 12.4074 13.086 12.4151 13.0747C12.4545 13.0282 12.4451 12.9682 12.4594 12.9146C12.4721 12.8685 12.4706 12.8036 12.5355 12.798C12.5932 12.7942 12.6187 12.8497 12.6469 12.891C12.6546 12.9016 12.6594 12.9142 12.6607 12.9273C12.6566 12.891 12.6727 12.8448 12.6982 12.8036C12.7316 12.7503 12.7939 12.7552 12.8396 12.8118C12.8584 12.8355 12.8666 12.8722 12.9064 12.8737Z" fill="#BF9200"/>
<path fill-rule="evenodd" clip-rule="evenodd" d="M11.7375 13.6275C11.7008 13.6605 11.6494 13.6316 11.6111 13.6601C11.559 13.7223 11.4979 13.6665 11.4416 13.6721C11.4161 13.6672 11.3936 13.6541 11.3678 13.656C11.2995 13.6605 11.2346 13.6395 11.169 13.626C11.1431 13.6192 11.1079 13.6166 11.1064 13.5746L11.1274 13.5577C11.1338 13.5386 11.1495 13.5307 11.1641 13.5202C11.2718 13.4366 11.2969 13.3267 11.2365 13.2097C11.2226 13.1842 11.2046 13.2086 11.19 13.2018C11.1705 13.191 11.1705 13.1763 11.1803 13.1595C11.1885 13.074 11.2354 12.9975 11.2354 12.9108C11.2399 12.9009 11.2469 12.8923 11.2557 12.8859C11.2645 12.8795 11.2748 12.8754 11.2856 12.8741C11.3126 12.8741 11.3284 12.8572 11.3404 12.8343C11.3629 12.7935 11.3948 12.7608 11.4461 12.7672C11.4964 12.7736 11.5043 12.8205 11.5196 12.8595C11.5238 12.8692 11.5238 12.8823 11.5335 12.8906C11.5399 12.8921 11.5433 12.8887 11.5478 12.8831C11.5804 12.8471 11.6036 12.7856 11.6633 12.7995C11.7308 12.8148 11.724 12.8853 11.736 12.9386C11.7458 12.981 11.7435 13.0278 11.784 13.0578C11.7933 13.0671 11.8 13.0786 11.8035 13.0912C11.787 13.1838 11.775 13.2746 11.8185 13.3646C11.8211 13.3991 11.8129 13.4283 11.784 13.4493C11.6944 13.4527 11.7281 13.3612 11.6895 13.3241C11.5823 13.4636 11.5654 13.4636 11.469 13.3162C11.3963 13.3965 11.394 13.4152 11.4443 13.5165C11.4716 13.5176 11.4803 13.4887 11.4986 13.4763C11.5369 13.4497 11.5789 13.4478 11.598 13.4887C11.6254 13.557 11.682 13.59 11.7375 13.6275ZM11.8421 10.3038C11.8586 10.1973 11.8875 10.0931 11.8811 9.98471C11.8799 9.94886 11.87 9.91384 11.8522 9.88268C11.8344 9.85152 11.8094 9.82514 11.7791 9.80583C11.7609 9.79622 11.7405 9.79132 11.7199 9.79158C11.6884 9.78821 11.6479 9.85946 11.6276 9.78821C11.619 9.76082 11.6184 9.73153 11.6259 9.70381C11.6334 9.67609 11.6487 9.6511 11.67 9.63183C11.6809 9.62171 11.697 9.61233 11.7094 9.61308C11.8879 9.62546 12.0679 9.55571 12.246 9.63333C12.3394 9.67533 12.3968 9.73571 12.4031 9.83958C12.411 9.85758 12.4136 9.87446 12.3938 9.88571C12.3653 9.88571 12.3499 9.86546 12.3409 9.84408C12.3094 9.76571 12.2434 9.75971 12.1868 9.79308C12.0713 9.86358 11.9828 9.81746 11.898 9.74358C11.8628 9.71553 11.8227 9.69406 11.7799 9.68021C11.8579 9.69896 11.922 9.75333 11.9794 9.81183C12.0206 9.85233 12.0345 9.89696 11.9846 9.95133C11.9254 10.0147 11.9603 10.1047 11.9359 10.1801C11.9171 10.236 11.9314 10.3083 11.8553 10.335C11.8406 10.329 11.835 10.3192 11.8421 10.3038ZM12.5239 10.653C12.5415 10.6965 12.5798 10.6886 12.6146 10.6867C12.777 10.6807 12.9195 10.6162 13.0598 10.5431C13.0755 10.5333 13.0838 10.5412 13.0898 10.5551C13.0883 10.6046 13.0485 10.6256 13.0133 10.6466C12.9539 10.6806 12.8902 10.7063 12.8239 10.7231C12.7448 10.746 12.6683 10.779 12.5929 10.8011C12.4898 10.8326 12.3709 10.8945 12.2539 10.8191C12.2228 10.7996 12.192 10.7947 12.1545 10.8176C12.0686 10.8723 12.0176 10.8453 11.994 10.7396C11.9957 10.7334 11.9987 10.7277 12.0028 10.7228C12.0068 10.7179 12.0119 10.7139 12.0176 10.7111C12.1283 10.7088 12.1313 10.707 12.1298 10.5892C12.1298 10.5585 12.1245 10.5292 12.1279 10.4996C12.1391 10.4426 12.1421 10.3848 12.1414 10.3275C12.141 10.2948 12.135 10.2618 12.1658 10.239C12.2254 10.2367 12.219 10.2828 12.2216 10.3192C12.228 10.4201 12.219 10.5206 12.2408 10.6211C12.249 10.662 12.2625 10.6942 12.3169 10.716C12.2723 10.5961 12.2424 10.4714 12.228 10.3443C12.2254 10.3173 12.2209 10.2915 12.2224 10.2645C12.2235 10.2281 12.2254 10.1842 12.273 10.1842C12.3098 10.1835 12.3266 10.2202 12.3289 10.2551C12.3323 10.302 12.345 10.3477 12.3499 10.3953C12.3578 10.4756 12.3758 10.5536 12.4091 10.6275C12.4238 10.6578 12.4399 10.7006 12.4879 10.662C12.4988 10.653 12.51 10.6477 12.5239 10.653Z" fill="#BF9200"/>
<path fill-rule="evenodd" clip-rule="evenodd" d="M11.8421 10.3038C11.8474 10.3123 11.8533 10.3207 11.8598 10.3289C11.8976 10.3672 11.8729 10.4077 11.8613 10.4448C11.8343 10.5314 11.7795 10.6042 11.7353 10.6837C11.7953 10.6691 11.8189 10.6218 11.8369 10.5723C11.871 10.4804 11.904 10.3878 11.9168 10.2881C11.9186 10.2809 11.9168 10.2704 11.9201 10.2633C11.9389 10.2247 11.9295 10.1568 11.9891 10.1624C12.0566 10.1688 12.0266 10.2314 12.0244 10.2712C12.0136 10.429 11.9673 10.5823 11.889 10.7197C11.8781 10.7377 11.8669 10.7538 11.8654 10.7759C11.8455 10.7943 11.8455 10.8172 11.8508 10.8416C11.8181 10.8821 11.7833 10.8959 11.7559 10.8408C11.7379 10.8041 11.7161 10.8142 11.6891 10.8213C11.6363 10.8352 11.5894 10.8281 11.5538 10.7823C11.5286 10.7516 11.4926 10.7474 11.4563 10.7426C11.3618 10.7288 11.2707 10.6971 11.1881 10.6492C11.1491 10.6297 11.106 10.6087 11.1026 10.5551C11.1086 10.5412 11.1169 10.5329 11.133 10.5431C11.2695 10.6147 11.4086 10.6758 11.5673 10.6886C11.6201 10.6916 11.6535 10.6777 11.6831 10.6308C11.7476 10.5269 11.7971 10.4167 11.8421 10.3038Z" fill="#BF9200"/>
<path fill-rule="evenodd" clip-rule="evenodd" d="M11.133 10.5412C11.1255 10.5462 11.1177 10.5518 11.1097 10.558C11.0715 10.588 11.037 10.5659 11.0017 10.5502C10.9233 10.5145 10.8401 10.4907 10.7546 10.4797C10.653 10.4658 10.5776 10.5138 10.5367 10.6094C10.5217 10.6477 10.503 10.6867 10.4824 10.7219C10.4411 10.7118 10.4767 10.6675 10.4509 10.651C10.4891 10.4635 10.5994 10.3848 10.7869 10.4107C10.9119 10.4277 11.0272 10.4712 11.133 10.5412ZM13.0826 10.5599C13.0757 10.5534 13.068 10.5477 13.0597 10.543C13.1762 10.466 13.3031 10.4209 13.4404 10.4077C13.6012 10.3915 13.7066 10.4797 13.7415 10.6529L13.7239 10.7107C13.6785 10.6942 13.6714 10.648 13.656 10.6113C13.6129 10.5138 13.5352 10.4658 13.4291 10.4823C13.3466 10.4945 13.2662 10.5181 13.1902 10.5524C13.1554 10.5678 13.1205 10.5895 13.0826 10.5599ZM12.5239 10.6529L12.5062 10.6747C12.4624 10.6739 12.4447 10.6435 12.4327 10.609C12.3928 10.5136 12.3712 10.4114 12.369 10.3079C12.3769 10.2727 12.3874 10.237 12.4226 10.2168C12.4447 10.3645 12.4635 10.513 12.5239 10.6529Z" fill="#BF9200"/>
<path fill-rule="evenodd" clip-rule="evenodd" d="M12.4238 10.2187C12.4159 10.2487 12.4268 10.2843 12.4046 10.3128C12.351 10.2502 12.3383 9.94831 12.3878 9.88268C12.3928 9.86893 12.3981 9.85518 12.4039 9.84143C12.4406 9.96631 12.4253 10.0919 12.4238 10.2202M11.1803 13.1587C11.1863 13.1707 11.1914 13.1831 11.1956 13.1958C11.2463 13.2644 11.2136 13.3151 11.1611 13.3616C11.1311 13.3646 11.1413 13.3346 11.13 13.3226C11.1439 13.2671 11.1533 13.2093 11.1803 13.1587ZM12.9964 13.1962C13.0011 13.1837 13.0063 13.1713 13.0118 13.1591C13.0388 13.2097 13.0485 13.2674 13.062 13.3233C13.0515 13.3349 13.062 13.3649 13.0309 13.3623C12.9784 13.3158 12.9458 13.2648 12.9964 13.1962Z" fill="#BF9200"/>
<path fill-rule="evenodd" clip-rule="evenodd" d="M11.1304 13.3234C11.1371 13.3357 11.1424 13.3489 11.1491 13.3627C11.184 13.4175 11.1806 13.4617 11.1116 13.4857C11.1056 13.4737 11.1015 13.4617 11.0955 13.4494L11.1304 13.3234ZM13.0444 13.3631C13.0496 13.3491 13.0555 13.336 13.062 13.3237C13.0733 13.3657 13.085 13.4079 13.0973 13.4501C13.0909 13.4621 13.0868 13.4741 13.0808 13.4865C13.0118 13.4617 13.0084 13.4179 13.0444 13.3631ZM11.3948 11.6775C11.3726 11.6385 11.3685 11.5954 11.3599 11.553C11.3325 11.508 11.3573 11.4645 11.3625 11.4199C11.3798 11.4984 11.3965 11.5772 11.4128 11.6565C11.4071 11.6636 11.4071 11.6767 11.3948 11.6775ZM11.3213 12.6394L11.3426 12.5857C11.3576 12.5932 11.349 12.612 11.3576 12.6217C11.3471 12.6772 11.3366 12.7354 11.3089 12.7864C11.3033 12.7669 11.2991 12.7466 11.2928 12.7256C11.307 12.6986 11.2879 12.66 11.3213 12.6394ZM11.6119 11.1146C11.5754 11.1199 11.5394 11.1259 11.5039 11.1326L11.4469 11.1157C11.4859 11.1 11.5275 11.0996 11.5695 11.0977C11.5871 11.094 11.6081 11.0794 11.6119 11.1146ZM10.965 13.6841C11.0344 13.6987 11.1056 13.7062 11.1713 13.7314C11.2793 13.7707 11.3329 13.719 11.3711 13.6301C11.3936 13.6271 11.4135 13.629 11.4315 13.644C11.4559 13.6631 11.4919 13.668 11.5001 13.7066C11.5095 13.7561 11.5466 13.767 11.5909 13.7617C11.6794 13.7737 11.7671 13.7861 11.8575 13.7764C11.8666 13.7783 11.8746 13.7835 11.88 13.791V13.8217C11.7794 13.8348 11.6776 13.835 11.577 13.8225C11.4833 13.8105 11.4206 13.8379 11.3824 13.941C11.3535 13.7801 11.2343 13.7689 11.1154 13.749C11.0509 13.7396 10.986 13.7306 10.9268 13.6995L10.965 13.6841ZM12.8213 13.6312C12.8149 13.6684 12.8644 13.6691 12.867 13.6999L12.8498 13.7194C12.831 13.7355 12.7916 13.734 12.7931 13.7692C12.7965 13.797 12.8314 13.7914 12.8486 13.806L12.8663 13.8251C12.8483 13.8604 12.8291 13.8952 12.8051 13.9429C12.7729 13.8427 12.7088 13.8075 12.6173 13.8236C12.5513 13.7944 12.483 13.8161 12.4159 13.8097C12.3806 13.8067 12.3443 13.815 12.3128 13.7929C12.3709 13.7344 12.4463 13.7644 12.513 13.7629C12.5936 13.7595 12.6716 13.7775 12.7088 13.6785C12.7155 13.6612 12.7444 13.6586 12.7609 13.6462C12.7774 13.6301 12.7988 13.6275 12.8213 13.6312ZM12.8363 12.6217L12.8126 12.5422C12.7973 12.5302 12.78 12.5224 12.7706 12.5044C12.7101 12.3646 12.6702 12.2168 12.6521 12.0656C12.6503 12.048 12.654 12.0311 12.6491 12.0127C12.6983 11.8774 12.7673 11.748 12.7845 11.6021L12.8119 11.6197C12.8419 11.6977 12.828 11.7806 12.8314 11.8616C12.8404 12.1005 12.8419 12.3405 12.8745 12.5767C12.8704 12.6 12.8666 12.6225 12.8363 12.6217ZM12.6896 11.133C12.6203 11.1337 12.5565 11.1127 12.4909 11.0974C12.4935 11.0617 12.516 11.0764 12.5336 11.0794C12.6041 11.0914 12.6761 11.1037 12.7455 11.1142C12.7271 11.1212 12.7085 11.1275 12.6896 11.133Z" fill="#BF9200"/>
<path fill-rule="evenodd" clip-rule="evenodd" d="M12.8513 12.586L12.8726 12.6397C12.906 12.6603 12.8869 12.6989 12.9008 12.7267C12.8953 12.7469 12.8901 12.7672 12.8854 12.7874C12.8573 12.7353 12.8483 12.6787 12.8359 12.622L12.8513 12.586ZM12.42 12.6412C12.3686 12.742 12.3098 12.8407 12.348 12.9614C12.3574 12.9772 12.3473 12.9944 12.3506 13.0105C12.3803 13.1234 12.4121 13.237 12.4181 13.3555C12.4105 13.3877 12.4115 13.4214 12.4211 13.453C12.4665 13.486 12.4811 13.5258 12.4369 13.5715L12.4211 13.5914C12.3911 13.5948 12.3653 13.612 12.3345 13.6087C12.2745 13.6012 12.2209 13.5787 12.2156 13.5119C12.2078 13.4193 12.1943 13.3263 12.1856 13.2337C12.1864 13.177 12.1748 13.1219 12.1733 13.0657C12.1665 13.0454 12.1699 13.0225 12.162 13.0042C12.1644 13.0101 12.166 13.0162 12.1669 13.0225C12.1669 13.0458 12.1748 13.0664 12.1766 13.0904C12.1871 13.1692 12.1748 13.252 12.2018 13.3297C12.201 13.3889 12.2145 13.4474 12.2119 13.5078C12.2108 13.5873 12.1564 13.648 12.0919 13.6447C12.0311 13.6424 11.9809 13.5832 11.9801 13.5078C11.979 13.4433 11.9888 13.3777 11.994 13.3135C12.0146 13.2404 12.0083 13.165 12.0161 13.0904C12.0191 13.0507 12.0368 13.0124 12.0326 12.9723C12.0353 13.0094 12.0244 13.0439 12.0165 13.0792C12.0206 13.1305 12.0045 13.1812 12.0068 13.2322C11.9948 13.3222 11.9854 13.4127 11.9786 13.5037C11.9738 13.5689 11.9171 13.6102 11.8489 13.609C11.8215 13.6083 11.7983 13.5937 11.7716 13.5918L11.7555 13.5719C11.7124 13.5262 11.7255 13.4868 11.7709 13.4534C11.778 13.4227 11.7844 13.3897 11.7919 13.3589C11.7851 13.2787 11.7818 13.1992 11.8136 13.1223C11.8216 13.0998 11.8135 13.0888 11.7893 13.0893L11.7739 13.0698C11.8041 13.0223 11.8346 12.9753 11.8654 12.9288C11.8803 12.8943 11.8885 12.8572 11.8898 12.8197C11.8909 12.7559 11.898 12.6925 11.9228 12.6318C11.9329 12.6097 11.9506 12.592 11.9726 12.5819C12.0964 12.6719 12.0964 12.6719 12.2205 12.58C12.2411 12.5907 12.2578 12.6075 12.2685 12.628C12.2864 12.6733 12.2974 12.7209 12.3011 12.7694C12.3017 12.7015 12.3228 12.6354 12.3615 12.5797C12.3659 12.5743 12.3713 12.57 12.3774 12.5667C12.3836 12.5635 12.3902 12.5615 12.3971 12.5609C12.4296 12.5659 12.4466 12.5848 12.4481 12.6175C12.444 12.6322 12.4373 12.6438 12.42 12.6412Z" fill="#BF9200"/>
<path fill-rule="evenodd" clip-rule="evenodd" d="M12.4162 13.1096L12.3281 12.9968C12.3344 12.9845 12.3409 12.9728 12.3476 12.9615C12.3832 13.0005 12.4099 13.0436 12.4335 13.0901L12.4162 13.1096ZM11.9516 10.7198C12.024 10.6395 12.024 10.5349 12.0401 10.4366C12.0562 10.3433 12.0622 10.2491 12.0724 10.1509C12.1102 10.164 12.1001 10.1865 12.099 10.2038C12.0885 10.3556 12.0739 10.5075 12.03 10.6541C12.0236 10.677 12.0142 10.6991 12.0236 10.7235L12.006 10.7419H11.9715C11.9516 10.7475 11.9467 10.7385 11.9516 10.7198ZM12.1665 10.5375C12.141 10.416 12.1545 10.2945 12.1489 10.1625C12.198 10.1891 12.1811 10.2184 12.1819 10.242C12.1511 10.3391 12.1766 10.4396 12.1665 10.5375Z" fill="#BF9200"/>
<path fill-rule="evenodd" clip-rule="evenodd" d="M11.9516 10.7197L11.9722 10.7419C11.9347 10.7794 11.8931 10.8086 11.8444 10.8285C11.8211 10.8124 11.8226 10.7955 11.8444 10.7794C11.8894 10.7764 11.9167 10.7411 11.9516 10.7197ZM11.6119 11.1146C11.5979 11.1094 11.5837 11.1037 11.5695 11.0977C11.677 11.0672 11.7847 11.0372 11.8927 11.0077C11.9111 11.0002 11.9167 11.007 11.9167 11.025C11.819 11.0667 11.7167 11.0968 11.6119 11.1146ZM12.3405 11.0494C12.2699 11.0344 12.2039 11.0026 12.1481 10.9567C12.15 10.9455 12.1594 10.9447 12.1676 10.9414L12.3645 11.0295C12.3664 11.0479 12.3615 11.0576 12.3405 11.0494Z" fill="#BF9200"/>
<path fill-rule="evenodd" clip-rule="evenodd" d="M11.9168 11.0246L11.8928 11.0074L12.0611 10.9219C12.0652 10.9233 12.0688 10.9255 12.072 10.9284C12.0751 10.9313 12.0775 10.9348 12.0791 10.9388C12.0326 10.9838 11.9745 11.0051 11.9168 11.0246ZM12.3405 11.0494L12.3645 11.0299C12.4204 11.0464 12.4778 11.0636 12.5333 11.0794C12.5194 11.0861 12.5048 11.091 12.4905 11.0974C12.4395 11.0861 12.3866 11.0764 12.3405 11.0494Z" fill="#BF9200"/>
<path fill-rule="evenodd" clip-rule="evenodd" d="M12.0787 10.9387C12.072 10.9331 12.0675 10.9275 12.0607 10.9219C12.1099 10.8536 12.1335 10.9196 12.1672 10.9414L12.1478 10.9567C12.1256 10.9504 12.1087 10.92 12.0787 10.9387ZM12.3292 12.4012C12.3465 12.3446 12.3502 12.288 12.3502 12.2287C12.3487 11.8905 12.3502 11.5534 12.3487 11.2151C12.3487 11.1817 12.3649 11.1439 12.3292 11.115C12.3242 11.113 12.3226 11.1104 12.3244 11.1071C12.3259 11.1039 12.3275 11.1022 12.3292 11.1022C12.4717 11.1307 12.6105 11.1787 12.7586 11.1787C12.7976 11.1795 12.7995 11.2046 12.7984 11.2335C12.7796 11.6786 12.6341 12.072 12.3292 12.4012ZM11.8612 11.1146C11.8189 11.1225 11.8256 11.157 11.8256 11.1844C11.8256 11.5496 11.8275 11.9156 11.8241 12.2809C11.8241 12.318 11.85 12.3469 11.8462 12.3829C11.6066 12.1234 11.4746 11.8129 11.4161 11.4697C11.4026 11.391 11.4008 11.31 11.3944 11.2294C11.3903 11.1926 11.4037 11.1765 11.4427 11.1765C11.5807 11.1735 11.7124 11.1319 11.8444 11.0985C11.8631 11.0895 11.865 11.1 11.8612 11.1146ZM11.3588 12.6217C11.3544 12.6095 11.3494 12.5975 11.3438 12.5857C11.4037 12.2857 11.3974 11.9812 11.3962 11.6771L11.4142 11.6565L11.5444 12.0105C11.5541 12.0292 11.5436 12.0461 11.5463 12.0641C11.5245 12.2156 11.4862 12.363 11.4247 12.5044C11.4165 12.5224 11.3985 12.5302 11.3839 12.5415L11.3588 12.6217ZM12.42 12.6412L12.4365 12.6217C12.5093 12.5981 12.4856 12.5389 12.4856 12.4894C12.4841 12.438 12.4455 12.4399 12.4095 12.4372C12.4031 12.4357 12.3974 12.432 12.3932 12.4269C12.3891 12.4217 12.3868 12.4153 12.3866 12.4087C12.4807 12.2831 12.5696 12.1515 12.6465 12.0127L12.6694 12.0476C12.6439 12.142 12.6271 12.2385 12.6191 12.336C12.6097 12.465 12.6686 12.516 12.7909 12.4927C12.7976 12.5082 12.8041 12.5247 12.8104 12.5422C12.744 12.6517 12.744 12.6517 12.6454 12.5557C12.6244 12.5355 12.6019 12.5156 12.5689 12.4849L12.5284 12.7905L12.42 12.6412Z" fill="#BF9200"/>
<path fill-rule="evenodd" clip-rule="evenodd" d="M11.382 12.5411L11.4007 12.4927C11.484 12.5272 11.5339 12.4826 11.5766 12.4204C11.5965 12.3952 11.6055 12.3611 11.6362 12.3457C11.6591 12.3416 11.6839 12.3427 11.7019 12.3221C11.7069 12.3187 11.7127 12.3166 11.7188 12.3162C11.7249 12.3158 11.7309 12.3171 11.7364 12.3199C11.7547 12.3427 11.7806 12.3596 11.7866 12.3919C11.7863 12.3999 11.7834 12.4077 11.7784 12.414C11.7521 12.4331 11.7112 12.4339 11.6989 12.4717C11.6779 12.4939 11.6771 12.5359 11.634 12.5332C11.6242 12.5212 11.6389 12.471 11.5976 12.5085C11.5655 12.5348 11.5357 12.5638 11.5084 12.5951C11.4622 12.6491 11.427 12.6592 11.4045 12.5771C11.4004 12.564 11.3902 12.5531 11.382 12.5411Z" fill="#BF9200"/>
<path fill-rule="evenodd" clip-rule="evenodd" d="M11.6437 12.3547C11.6337 12.3842 11.6242 12.4141 11.6152 12.4443C11.5871 12.4334 11.5777 12.4083 11.5759 12.3806C11.5651 12.2692 11.5472 12.1586 11.5222 12.0494C11.5286 12.0359 11.5361 12.0239 11.5425 12.0101C11.5837 12.0824 11.6261 12.1529 11.6674 12.2253C11.6718 12.2317 11.6742 12.2393 11.6741 12.2471C11.6644 12.2729 11.6655 12.2999 11.6662 12.3273C11.6632 12.3401 11.6576 12.3498 11.6437 12.3547ZM11.7739 12.3974C11.7776 12.3941 11.7817 12.3929 11.7859 12.3907C11.8485 12.4544 11.9107 12.5167 11.9719 12.5808C11.9735 12.6021 11.9681 12.6233 11.9565 12.6412C11.9107 12.6228 11.8819 12.5681 11.8226 12.5808C11.8109 12.5766 11.8013 12.5682 11.7956 12.5572C11.8069 12.5013 11.7397 12.4559 11.7739 12.3974ZM12.3862 12.4087C12.391 12.4115 12.3951 12.4153 12.3982 12.4199C12.4215 12.4706 12.4087 12.5201 12.3967 12.5699L12.3795 12.5898C12.3214 12.5748 12.2797 12.6146 12.2351 12.6419C12.2205 12.6228 12.2197 12.6011 12.2186 12.5797C12.2741 12.5231 12.3315 12.4661 12.3862 12.4087ZM11.8631 12.4087C11.9411 12.4282 11.9824 12.4859 12.0165 12.5527C11.9542 12.5174 11.9089 12.4631 11.8631 12.4087ZM12.1466 11.0268C12.0926 10.9871 12.0544 11.0546 12.0049 11.0463C12.0499 11.0216 12.0832 10.9181 12.1466 11.0268ZM12.0337 12.5512C12.0806 12.6014 12.126 12.5722 12.171 12.5471C12.1582 12.5864 12.1312 12.6179 12.0926 12.6179C12.0641 12.6168 12.0352 12.5894 12.0337 12.5512Z" fill="#BF9200"/>
<path fill-rule="evenodd" clip-rule="evenodd" d="M11.6625 12.2549C11.6635 12.2449 11.6649 12.2352 11.6666 12.2257C11.6895 12.2572 11.7112 12.2883 11.7352 12.3198L11.7172 12.3401C11.6719 12.3431 11.6651 12.3067 11.6527 12.2774C11.6534 12.269 11.6568 12.2611 11.6625 12.2549ZM12.2212 12.4987C12.2422 12.4642 12.2546 12.4181 12.3105 12.4278C12.2854 12.4582 12.2636 12.4919 12.2212 12.4987ZM12.3292 11.1007V11.1138C12.2974 11.1044 12.2587 11.1059 12.2422 11.0654C12.2743 11.0676 12.3048 11.0799 12.3292 11.1007ZM11.8612 11.1146L11.8444 11.0992C11.8706 11.0763 11.9006 11.0654 11.934 11.0846C11.9149 11.1071 11.8867 11.1089 11.8612 11.1146ZM11.8087 12.5493L11.8256 12.5692C11.8751 12.6221 11.8789 12.6907 11.8905 12.7559C11.8969 12.7833 11.8942 12.8122 11.9149 12.8362C11.9141 12.8759 11.8867 12.9003 11.8646 12.9288C11.844 12.8294 11.8286 12.7289 11.772 12.6412C11.7551 12.6461 11.7476 12.6348 11.7424 12.6198C11.7424 12.5752 11.7574 12.5456 11.8087 12.5493Z" fill="#BF9200"/>
<path fill-rule="evenodd" clip-rule="evenodd" d="M11.7544 12.6198L11.7724 12.6412C11.7435 12.684 11.7124 12.7623 11.6741 12.7545C11.6201 12.7413 11.6554 12.6607 11.6407 12.6123C11.6332 12.5868 11.6359 12.5591 11.6332 12.5332L11.6632 12.4447C11.7071 12.4638 11.703 12.5047 11.703 12.5426C11.703 12.5805 11.7135 12.6086 11.7544 12.6198ZM12.7537 14.1671C12.7279 14.1723 12.6967 14.1843 12.6922 14.142C12.6896 14.103 12.7147 14.0808 12.7432 14.0632C12.7954 14.0317 12.7886 14.1015 12.8242 14.118C12.8299 14.0553 12.8996 14.0253 12.879 13.9571C12.8775 13.953 12.8925 13.9402 12.9026 13.9357C12.9052 13.9342 12.9199 13.9432 12.9206 13.9481C12.9247 14.0156 13.0054 14.0088 13.0252 14.0598C13.0297 14.073 13.0504 14.0778 13.0541 14.0688C13.0912 13.9987 13.1467 14.028 13.2045 14.0448C13.1947 13.9957 13.1857 13.9563 13.1779 13.9173C13.17 13.8783 13.1569 13.845 13.1066 13.8652C13.0852 13.8738 13.0695 13.8645 13.0672 13.8453C13.0616 13.8206 13.0875 13.8217 13.1029 13.8172C13.1756 13.7985 13.2064 13.8367 13.2206 13.9023C13.2311 13.962 13.2195 14.0471 13.3286 14.0055C13.3342 14.0028 13.3504 14.016 13.3549 14.025C13.3624 14.0411 13.3432 14.0486 13.3361 14.0478C13.2394 14.0418 13.1779 14.1577 13.0732 14.1225C13.0552 14.1176 13.0474 14.1292 13.0414 14.1453C13.0155 14.2083 12.9847 14.2166 12.9289 14.169C12.8779 14.1262 12.8302 14.151 12.7957 14.2005C12.7616 14.2117 12.7747 14.1686 12.7537 14.1671ZM11.6625 14.2612C11.7345 14.2361 11.781 14.2057 11.7409 14.1337C11.7281 14.1105 11.7364 14.0891 11.7592 14.0823C11.7802 14.0745 11.7844 14.0977 11.7919 14.1138C11.7994 14.13 11.8046 14.1506 11.8275 14.1438C11.8511 14.1382 11.8429 14.1157 11.8417 14.0992C11.8399 14.079 11.8309 14.0546 11.856 14.0433C11.8852 14.0313 11.8852 14.0647 11.8995 14.076C11.9426 14.1052 11.9925 14.0868 12.0386 14.0913C12.0799 14.0981 12.1294 14.0868 12.114 14.1573C12.153 14.1521 12.1504 14.1191 12.1714 14.1075C12.1954 14.0947 12.2261 14.0745 12.2441 14.0947C12.2606 14.1142 12.2591 14.1506 12.2591 14.1802C12.2599 14.2132 12.2317 14.2132 12.2077 14.2143C12.1646 14.2151 12.1211 14.2065 12.0922 14.2582C12.0784 14.2822 12.0476 14.2807 12.0217 14.2593C11.9306 14.1877 11.8545 14.1851 11.7671 14.25C11.742 14.2695 11.7146 14.274 11.6625 14.2612ZM11.5507 14.1956C11.5672 14.1045 11.5834 14.0347 11.5789 13.9623C11.5774 13.9372 11.586 13.9181 11.6081 13.9181C11.6456 13.9181 11.628 13.9481 11.6254 13.9642C11.6161 14.0377 11.6052 14.1113 11.5927 14.1851C11.5879 14.2102 11.5691 14.2271 11.5451 14.2346C11.5215 14.2413 11.5061 14.2278 11.4919 14.2106C11.4356 14.1341 11.3501 14.1127 11.2691 14.1607C11.2421 14.1768 11.2166 14.1892 11.1765 14.1753C11.2312 14.1453 11.271 14.1112 11.2455 14.0448C11.2406 14.0325 11.2511 14.0122 11.2669 14.0096C11.286 14.0055 11.289 14.025 11.2909 14.0396C11.295 14.0662 11.2987 14.0932 11.3321 14.0996C11.3482 14.1026 11.3625 14.1026 11.3734 14.091C11.3824 14.0797 11.3692 14.0711 11.3625 14.0617C11.3126 13.9841 11.4157 14.0066 11.4311 13.965C11.4435 13.9342 11.4836 13.9642 11.4844 13.9908C11.4859 14.025 11.5871 14.0598 11.4874 14.0943C11.5046 14.1232 11.5226 14.1506 11.5507 14.1956ZM10.9012 13.8255C10.9421 13.7988 10.9879 13.7921 11.0167 13.8075C11.04 13.8206 11.0115 13.8603 11.0044 13.8888C11.0029 13.8945 11.0002 13.9001 10.9999 13.9065C10.9942 13.9432 10.9489 13.9957 10.992 14.0156C11.0561 14.0426 11.0224 13.9623 11.0467 13.9417C11.0572 13.9342 11.0715 13.9316 11.0914 13.9233C11.0895 13.9432 11.0902 13.9545 11.0887 13.9657C11.082 13.9972 11.0497 14.037 11.1082 14.0501C11.163 14.0632 11.1532 14.028 11.1532 13.9931C11.1536 13.9668 11.1855 13.9638 11.2087 13.9627C11.2106 13.9668 11.2136 13.9698 11.2129 13.9725C11.1746 14.1307 11.1994 14.1153 11.0434 14.0778C11.0002 14.0685 10.9579 14.055 10.9151 14.0418C10.893 14.0366 10.8615 14.0396 10.8589 14.0081C10.8574 13.9751 10.8795 13.9541 10.9102 13.9413C10.9271 13.9371 10.9428 13.929 10.956 13.9177C10.9931 13.875 10.9736 13.8375 10.9012 13.8255ZM12.3615 14.2158C12.2895 14.1971 12.3184 14.1453 12.3435 14.1232C12.3926 14.0831 12.3934 14.0396 12.3735 13.9893C12.3626 13.9612 12.3746 13.9466 12.3956 13.9432C12.4215 13.9402 12.417 13.9661 12.4192 13.9822C12.4252 14.0272 12.429 14.0707 12.435 14.115C12.4369 14.139 12.4376 14.1678 12.4736 14.1581C12.4999 14.151 12.5055 14.133 12.4942 14.1097C12.4856 14.0891 12.4751 14.067 12.504 14.0595C12.543 14.0501 12.534 14.0861 12.5407 14.106C12.5644 14.1828 12.5276 14.2083 12.456 14.2038C12.4282 14.238 12.3926 14.2106 12.3615 14.2158ZM12.5482 14.2612C12.6041 14.2065 12.6435 14.166 12.5842 14.1108C12.567 14.0966 12.5824 14.0688 12.6022 14.0598C12.6232 14.052 12.6285 14.076 12.6382 14.0906C12.6877 14.172 12.6682 14.226 12.5482 14.2612ZM11.67 13.92C11.6974 13.9346 11.7217 13.9421 11.7097 13.9728C11.6876 14.0261 11.6876 14.0827 11.6827 14.1375C11.6812 14.1566 11.6827 14.1855 11.6527 14.1795C11.622 14.1738 11.6374 14.1472 11.64 14.1292C11.6432 14.0935 11.6475 14.0583 11.6527 14.0238C11.658 13.9916 11.6625 13.9597 11.67 13.92Z" fill="#BF9200"/>
<path fill-rule="evenodd" clip-rule="evenodd" d="M12.4537 14.2214C12.4717 14.2282 12.4901 14.2428 12.4766 14.2601C12.4537 14.2859 12.4177 14.2649 12.3877 14.2694C12.3682 14.2736 12.3649 14.2484 12.3799 14.2312C12.402 14.2147 12.4282 14.2192 12.4537 14.2214ZM12.7537 14.1671C12.7676 14.1783 12.78 14.1899 12.795 14.2001C12.7785 14.2379 12.7496 14.2417 12.7129 14.2353C12.7211 14.2072 12.7736 14.2083 12.7537 14.1671ZM12.3394 13.9837C12.3352 14.0006 12.3259 14.0043 12.3146 14.0006C12.3079 13.9987 12.3 13.9889 12.3 13.9852C12.3007 13.9706 12.3116 13.9646 12.3251 13.9691C12.3311 13.9713 12.3356 13.9784 12.3394 13.9837ZM12.3442 14.0546C12.3371 14.0632 12.3292 14.0733 12.3172 14.0666C12.3067 14.0598 12.2981 14.0508 12.3056 14.0384C12.3116 14.0272 12.3202 14.0186 12.3326 14.0272C12.3427 14.0317 12.3502 14.0411 12.3442 14.0546ZM13.296 14.1127C13.2907 14.1292 13.2799 14.1326 13.2675 14.1314C13.2562 14.1299 13.2424 14.1247 13.2502 14.1093C13.2544 14.1014 13.2664 14.0947 13.2761 14.0932C13.2896 14.0917 13.2949 14.1026 13.296 14.1127ZM10.9387 14.0909C10.932 14.1044 10.9234 14.1127 10.9102 14.1063C10.9042 14.1026 10.8979 14.0924 10.8997 14.0857C10.9024 14.0748 10.9136 14.0681 10.9256 14.0748C10.932 14.0771 10.9354 14.0861 10.9387 14.0909ZM11.1142 14.1404C11.1056 14.1461 11.0996 14.1539 11.094 14.1547C11.0797 14.1577 11.0715 14.1472 11.076 14.1356C11.0782 14.1296 11.0887 14.1243 11.0955 14.1243C11.1004 14.1247 11.1056 14.1337 11.1142 14.1404ZM11.1409 13.6462C11.1665 13.6397 11.1933 13.6398 11.2188 13.6465C11.2444 13.6531 11.2679 13.666 11.2871 13.6841C11.2331 13.6927 11.1862 13.6739 11.1409 13.6462ZM10.9275 13.5824C10.9513 13.5754 10.9766 13.5754 11.0004 13.5825C11.0242 13.5897 11.0454 13.6036 11.0614 13.6226C11.0145 13.6312 10.9747 13.6132 10.9275 13.5824ZM12.9056 13.6788C12.9472 13.6462 12.9979 13.6387 13.0485 13.6364L13.0549 13.6586L12.9131 13.7002L12.9056 13.6788ZM13.1197 13.6274C13.1617 13.5836 13.2041 13.5738 13.2649 13.5776C13.2459 13.5961 13.223 13.6101 13.1979 13.6187C13.1728 13.6274 13.1461 13.6303 13.1197 13.6274ZM11.5762 13.7913H11.8631C11.7692 13.8172 11.6701 13.8172 11.5762 13.7913ZM12.0225 13.0713L12.0079 13.0739L12.0307 12.9138C12.0431 12.9843 12.0491 13.0293 12.0225 13.0713ZM12.153 13.0166V12.9348C12.1747 12.9569 12.1657 12.9787 12.1695 12.9989C12.1781 13.0177 12.168 13.0196 12.153 13.0166Z" fill="#BF9200"/>
<path fill-rule="evenodd" clip-rule="evenodd" d="M12.153 13.0165L12.1695 12.9989C12.1761 13.0068 12.1806 13.0162 12.1828 13.0263C12.1849 13.0363 12.1846 13.0467 12.1819 13.0567C12.1769 13.0622 12.1715 13.0673 12.1658 13.072C12.1511 13.0567 12.15 13.0364 12.153 13.0165ZM11.6588 13.7279C11.606 13.7395 11.5515 13.7407 11.4983 13.7313C11.5545 13.6874 11.6006 13.6859 11.6588 13.7279ZM11.8504 13.7369C11.8121 13.7549 11.7709 13.7523 11.7274 13.7549C11.7338 13.72 11.7555 13.7219 11.7754 13.7219C11.7983 13.7335 11.8286 13.7133 11.8504 13.7369Z" fill="#BF9200"/>
<path fill-rule="evenodd" clip-rule="evenodd" d="M11.8504 13.7369C11.8245 13.7328 11.7971 13.7369 11.7754 13.7219C11.8054 13.7197 11.8346 13.7184 11.8631 13.7182C11.871 13.7182 11.8807 13.7261 11.8669 13.7336C11.8627 13.7369 11.856 13.7351 11.8504 13.7369ZM12.681 13.7223C12.634 13.7388 12.5832 13.7415 12.5347 13.7302C12.5869 13.6807 12.633 13.7002 12.681 13.7223ZM12.42 13.7219C12.438 13.7182 12.453 13.7257 12.4744 13.7474C12.4307 13.757 12.3851 13.7534 12.3435 13.7369C12.3656 13.7133 12.3956 13.7336 12.42 13.7219Z" fill="#BF9200"/>
<path fill-rule="evenodd" clip-rule="evenodd" d="M12.42 13.722C12.3964 13.737 12.3694 13.7329 12.3435 13.737C12.336 13.7329 12.3034 13.7351 12.3289 13.722C12.3518 13.7081 12.3881 13.7201 12.42 13.722ZM11.6625 12.267C11.643 12.2816 11.6513 12.3034 11.6445 12.3214C11.6318 12.2974 11.6231 12.2722 11.6351 12.2475C11.64 12.2355 11.6539 12.249 11.6625 12.255V12.267ZM11.4371 14.0175C11.4446 14.0257 11.4525 14.0306 11.454 14.0374C11.4619 14.0557 11.4461 14.0557 11.4356 14.0542C11.4296 14.0542 11.4203 14.0441 11.421 14.0389C11.4218 14.0321 11.4296 14.0257 11.4371 14.0175Z" fill="#BF9200"/>
</svg>
