<svg width="22" height="19" viewBox="0 0 22 19" fill="none" xmlns="http://www.w3.org/2000/svg">
<path d="M7.71173 16.3765L8.17605 15.7875L7.71173 16.3765ZM10.75 2.96621L10.2096 3.48631C10.351 3.6332 10.5461 3.71621 10.75 3.71621C10.9539 3.71621 11.149 3.6332 11.2904 3.48631L10.75 2.96621ZM13.7883 16.3765L14.2526 16.9654L13.7883 16.3765ZM7.71173 16.3765L8.17605 15.7875C6.66039 14.5926 5.00307 13.4258 3.68829 11.9453C2.39922 10.4938 1.5 8.80007 1.5 6.60267H0.75H0C0 9.26821 1.1105 11.3016 2.56672 12.9414C3.99723 14.5522 5.82077 15.8408 7.24742 16.9654L7.71173 16.3765ZM0.75 6.60267H1.5C1.5 4.45181 2.71537 2.6481 4.37436 1.88977C5.98607 1.15305 8.15166 1.34815 10.2096 3.48631L10.75 2.96621L11.2904 2.44611C8.8485 -0.0909026 6.01409 -0.509037 3.75076 0.525536C1.53471 1.5385 0 3.89061 0 6.60267H0.75ZM7.71173 16.3765L7.24742 16.9654C7.75965 17.3693 8.30954 17.7999 8.86682 18.1255C9.42386 18.451 10.0596 18.7156 10.75 18.7156V17.9656V17.2156C10.4404 17.2156 10.0761 17.0948 9.62361 16.8304C9.17132 16.5661 8.70208 16.2021 8.17605 15.7875L7.71173 16.3765ZM13.7883 16.3765L14.2526 16.9654C15.6792 15.8408 17.5028 14.5522 18.9333 12.9414C20.3895 11.3016 21.5 9.26821 21.5 6.60267H20.75H20C20 8.80007 19.1008 10.4938 17.8117 11.9453C16.4969 13.4258 14.8396 14.5926 13.324 15.7875L13.7883 16.3765ZM20.75 6.60267H21.5C21.5 3.89061 19.9653 1.5385 17.7492 0.525536C15.4859 -0.509037 12.6515 -0.0909026 10.2096 2.44611L10.75 2.96621L11.2904 3.48631C13.3483 1.34815 15.5139 1.15305 17.1256 1.88977C18.7846 2.6481 20 4.45181 20 6.60267H20.75ZM13.7883 16.3765L13.324 15.7875C12.7979 16.2021 12.3287 16.5661 11.8764 16.8304C11.4239 17.0948 11.0596 17.2156 10.75 17.2156V17.9656V18.7156C11.4404 18.7156 12.0761 18.451 12.6332 18.1255C13.1905 17.7998 13.7403 17.3693 14.2526 16.9654L13.7883 16.3765Z" fill="#1C274C"/>
</svg>
