<svg width="16" height="16" viewBox="0 0 16 16" fill="none" xmlns="http://www.w3.org/2000/svg">
<path d="M11.213 10.3233C10.9698 10.2011 10.6734 10.2959 10.5463 10.5367C10.4289 10.7819 10.526 11.0762 10.7663 11.2033C11.353 11.5033 11.6863 11.87 11.6863 12.2233C11.6863 12.9767 10.113 13.8167 8.00634 13.8167C5.89967 13.8167 4.31967 12.9833 4.31967 12.25C4.31967 11.9033 4.65301 11.53 5.23967 11.23C5.41561 11.1595 5.53653 10.9955 5.55194 10.8066C5.56735 10.6176 5.47461 10.4363 5.31243 10.3381C5.15026 10.24 4.94654 10.242 4.78634 10.3433C3.97694 10.6484 3.41266 11.3887 3.33301 12.25C3.33301 13.73 5.33301 14.8433 7.99967 14.8433C10.6663 14.8433 12.6663 13.73 12.6663 12.25C12.594 11.3812 12.0285 10.6315 11.213 10.3233Z" fill="#6D7379"/>
<path fill-rule="evenodd" clip-rule="evenodd" d="M7.49967 12.5433V9.66333C5.30427 9.39882 3.69469 7.4702 3.82718 5.26289C3.95968 3.05559 5.78839 1.33334 7.99967 1.33334C10.211 1.33334 12.0397 3.05559 12.1722 5.26289C12.3047 7.4702 10.6951 9.39882 8.49967 9.66333V12.5433C8.49967 12.8195 8.27582 13.0433 7.99967 13.0433C7.72353 13.0433 7.49967 12.8195 7.49967 12.5433ZM10.9492 4.2941C10.4542 3.10272 9.28977 2.3273 7.99968 2.33C6.24493 2.33367 4.82334 3.75525 4.81968 5.51C4.81698 6.80009 5.5924 7.96453 6.78378 8.45948C7.97515 8.95442 9.34741 8.68221 10.2596 7.76997C11.1719 6.85773 11.4441 5.48548 10.9492 4.2941Z" fill="#6D7379"/>
<path d="M6.39301 6.25C6.66915 6.25 6.89301 6.02614 6.89301 5.75C6.89301 4.98416 7.51384 4.36333 8.27968 4.36333C8.55582 4.36333 8.77968 4.13947 8.77968 3.86333C8.77968 3.58719 8.55582 3.36333 8.27968 3.36333C7.64492 3.3651 7.03687 3.61895 6.58928 4.06903C6.1417 4.51912 5.89124 5.12858 5.89301 5.76333C5.89477 5.89418 5.94843 6.01896 6.0422 6.11023C6.13597 6.2015 6.26217 6.25178 6.39301 6.25Z" fill="#6D7379"/>
</svg>
